<svg xmlns="http://www.w3.org/2000/svg" width="512" height="512" fill="none" viewBox="0 0 512 512">
  <g clip-path="url(#a)">
    <path fill="#06AF4A" d="m425.579 118.101-74.326-74.368C323.029 15.531 285.525 0 245.653 0h-96.32C90.517 0 42.667 47.85 42.667 106.667v298.666C42.667 464.149 90.517 512 149.333 512h213.334c58.816 0 106.666-47.851 106.666-106.667V223.68c0-39.915-15.552-77.376-43.754-105.579Zm-30.166 30.187a106.25 106.25 0 0 1 17.174 22.4h-92.608c-11.776 0-21.334-9.579-21.334-21.333v-92.63A106.902 106.902 0 0 1 321.067 73.9l74.325 74.368.021.021Zm31.254 257.067c0 35.285-28.715 64-64 64H149.333c-35.285 0-64-28.715-64-64V106.667c0-35.286 28.715-64 64-64h96.32c3.478 0 6.934.17 10.347.49v106.176c0 35.286 28.715 64 64 64h106.176c.32 3.414.491 6.87.491 10.347v181.675Zm-91.584-61.76c8.341 8.32 8.341 21.824 0 30.165l-34.411 34.432c-12.309 12.309-28.501 18.475-44.672 18.475-16.171 0-32.363-6.166-44.672-18.475l-34.411-34.432c-8.341-8.341-8.341-21.845 0-30.165 8.342-8.342 21.824-8.342 30.166 0l27.584 27.584v-93.824c0-11.776 9.536-21.334 21.333-21.334 11.797 0 21.333 9.558 21.333 21.334v93.824l27.584-27.584c8.342-8.342 21.824-8.342 30.166 0Z"/>
  </g>
  <defs>
    <clipPath id="a">
      <path fill="#fff" d="M0 0h512v512H0z"/>
    </clipPath>
  </defs>
</svg>
