<svg xmlns="http://www.w3.org/2000/svg" width="512" height="512" fill="none" viewBox="0 0 512 512">
  <g clip-path="url(#a)">
    <path fill="#575D5E" d="M405.333 21.333H106.667A106.794 106.794 0 0 0 0 128v256a106.793 106.793 0 0 0 106.667 106.667h298.666A106.795 106.795 0 0 0 512 384V128A106.797 106.797 0 0 0 405.333 21.333ZM106.667 64h298.666a64.002 64.002 0 0 1 59.307 40.256L301.269 267.648a64.147 64.147 0 0 1-90.538 0L47.36 104.256A64.001 64.001 0 0 1 106.667 64Zm298.666 384H106.667a64.002 64.002 0 0 1-64-64V160l137.898 137.813a106.814 106.814 0 0 0 150.87 0L469.333 160v224a63.997 63.997 0 0 1-64 64Z"/>
  </g>
  <defs>
    <clipPath id="a">
      <path fill="#fff" d="M0 0h512v512H0z"/>
    </clipPath>
  </defs>
</svg>
