<svg xmlns="http://www.w3.org/2000/svg" width="512" height="512" fill="none" viewBox="0 0 512 512">
  <g clip-path="url(#a)">
    <path fill="#575D5E" d="M256.001 256a85.337 85.337 0 0 0 78.838-52.678 85.326 85.326 0 0 0-18.498-92.995 85.332 85.332 0 1 0-120.68 120.679A85.332 85.332 0 0 0 256.001 256Zm0-128a42.664 42.664 0 0 1 39.419 26.339 42.672 42.672 0 0 1-9.249 46.498 42.67 42.67 0 0 1-46.498 9.249A42.668 42.668 0 0 1 256.001 128Zm184.747 67.349-15.339-5.098a170.674 170.674 0 0 0-42.08-133.08A170.667 170.667 0 0 0 256.001 0 170.52 170.52 0 0 0 92.629 121.896a170.516 170.516 0 0 0-5.46 72.067 107.622 107.622 0 0 0-54.357 27.733 105.515 105.515 0 0 0-32.81 76.971V385.6a106.947 106.947 0 0 0 76.8 102.4l61.226 19.2a106.252 106.252 0 0 0 31.765 4.8 108.297 108.297 0 0 0 28.907-3.968l123.307-36.48a63.726 63.726 0 0 1 33.557 0l50.923 17.067a85.354 85.354 0 0 0 38.254.485 85.345 85.345 0 0 0 58.652-46.047 85.335 85.335 0 0 0 8.608-37.276V295.936a106.987 106.987 0 0 0-19.678-61.599 106.943 106.943 0 0 0-51.575-38.988ZM165.505 80.256a127.724 127.724 0 0 1 180.992 0 128.786 128.786 0 0 1 .235 181.333l-75.797 73.707a21.165 21.165 0 0 1-29.632 0l-75.798-73.387a128.852 128.852 0 0 1 0-181.653Zm303.83 325.525a42.477 42.477 0 0 1-16.299 33.536 42.01 42.01 0 0 1-34.688 8.427l-50.027-16.811a107.16 107.16 0 0 0-57.962-.341l-123.392 36.437a63.996 63.996 0 0 1-36.139-.618l-61.739-19.2A64.28 64.28 0 0 1 42.668 385.6v-86.933a63.229 63.229 0 0 1 19.627-46.144A64.516 64.516 0 0 1 97.9 235.328a171.105 171.105 0 0 0 37.653 56.939l76.096 73.664a63.638 63.638 0 0 0 89.046 0l76.01-73.878a169.847 169.847 0 0 0 38.678-60.181l11.456 3.797a64.14 64.14 0 0 1 30.777 23.414 64.14 64.14 0 0 1 11.719 36.853v109.845Z"/>
  </g>
  <defs>
    <clipPath id="a">
      <path fill="#fff" d="M0 0h512v512H0z"/>
    </clipPath>
  </defs>
</svg>
