<svg xmlns="http://www.w3.org/2000/svg" width="512" height="512" fill="none" viewBox="0 0 512 512">
  <g clip-path="url(#a)">
    <path fill="#575D5E" d="M256 128a85.337 85.337 0 0 0-83.694 101.981 85.337 85.337 0 0 0 67.046 67.046 85.33 85.33 0 0 0 87.6-36.285A85.333 85.333 0 0 0 256 128Zm0 128a42.662 42.662 0 0 1-41.847-50.991A42.667 42.667 0 1 1 256 256Z"/>
    <path fill="#575D5E" d="M256 512a112.442 112.442 0 0 1-91.968-46.933C82.731 352.917 41.493 268.608 41.493 214.464a214.506 214.506 0 1 1 429.014 0c0 54.144-41.238 138.453-122.539 250.603A112.454 112.454 0 0 1 256 512Zm0-465.472A168.172 168.172 0 0 0 88.021 214.507c0 42.88 40.384 122.176 113.686 223.274a67.097 67.097 0 0 0 84.763 20.358 67.082 67.082 0 0 0 23.823-20.358c73.302-101.098 113.686-180.394 113.686-223.274A168.173 168.173 0 0 0 256 46.527Z"/>
  </g>
  <defs>
    <clipPath id="a">
      <path fill="#fff" d="M0 0h512v512H0z"/>
    </clipPath>
  </defs>
</svg>
