<svg width="142" height="24" viewBox="0 0 142 24" fill="none" xmlns="http://www.w3.org/2000/svg">
<path d="M141.223 19.9945C141.223 22.1333 139.489 23.8672 137.35 23.8672C135.211 23.8672 133.477 22.1333 133.477 19.9945C133.477 17.8556 135.211 16.1217 137.35 16.1217C139.489 16.1217 141.223 17.8556 141.223 19.9945Z" fill="#06AF4A"/>
<path d="M123.729 19.9502H112.664L115.247 20.5035L114.169 23.7676H107.331L115.862 0.365148H123.364L131.862 23.7676H124.99L123.729 19.9502ZM122.102 14.971L119.58 7.40249H116.813L119.398 7.95574L117.09 14.971H122.102Z" fill="#2D3436"/>
<path d="M99.2918 18.7884H106.561V23.7676H92.7855V0.365148H99.2918V18.7884Z" fill="#2D3436"/>
<path d="M77.8774 24C75.6865 24 73.6727 23.491 71.8359 22.473C69.9991 21.4329 68.5385 20.0055 67.4541 18.1909C66.3919 16.3541 65.8608 14.2849 65.8608 11.9834C65.8608 9.68188 66.3919 7.62379 67.4541 5.80913C68.5385 3.97234 69.9991 2.54495 71.8359 1.52697C73.6727 0.50899 75.6865 0 77.8774 0C80.0904 0 82.1042 0.50899 83.9189 1.52697C85.7556 2.54495 87.2052 3.97234 88.2674 5.80913C89.3297 7.62379 89.8608 9.68188 89.8608 11.9834C89.8608 14.2849 89.3297 16.3541 88.2674 18.1909C87.2052 20.0055 85.7556 21.4329 83.9189 22.473C82.0821 23.491 80.0682 24 77.8774 24ZM77.8774 17.9585C79.5371 17.9585 80.8428 17.4163 81.7944 16.332C82.7681 15.2476 83.255 13.7981 83.255 11.9834C83.255 10.1245 82.7681 8.6639 81.7944 7.60166C80.8428 6.51729 79.5371 5.9751 77.8774 5.9751C76.1955 5.9751 74.8787 6.51729 73.9272 7.60166C72.9756 8.6639 72.4998 10.1245 72.4998 11.9834C72.4998 13.8202 72.9756 15.2808 73.9272 16.3651C74.8787 17.4274 76.1955 17.9585 77.8774 17.9585Z" fill="#2D3436"/>
<path d="M58.0617 23.7676L51.9144 15.1369H48.4511L51.2173 15.6902V23.7676H44.7111V0.365148H54.9684C56.8494 0.365148 58.4428 0.697099 59.7485 1.361C61.0541 2.00277 62.0389 2.89903 62.7028 4.0498C63.3667 5.17843 63.6987 6.4509 63.6987 7.86722C63.6987 9.46059 63.2561 10.8658 62.3709 12.083C61.5078 13.278 60.2353 14.13 58.5534 14.639L65.3314 23.7676H58.0617ZM51.2173 10.6888H54.4372C55.3224 10.6888 55.9864 10.4786 56.429 10.0581C56.8716 9.63763 57.0928 9.02905 57.0928 8.23237C57.0928 7.47995 56.8605 6.8935 56.3958 6.47303C55.9532 6.03043 55.3003 5.80913 54.4372 5.80913H48.4511L51.2173 6.36238V10.6888Z" fill="#2D3436"/>
<path d="M30.2651 5.57677L33.0314 6.13002V9.39419H40.5003V14.3403H30.2651L33.0314 14.8935V18.556H41.4961V23.7676H26.5252V0.365148H41.4961V5.57677H30.2651Z" fill="#2D3436"/>
<path d="M24.4979 0.365148L16.4315 23.7676H8.09959L0 0.365148H6.97096L12.2822 17.2614L17.5602 0.365148H24.4979Z" fill="#2D3436"/>
</svg>
